<svg xmlns="http://www.w3.org/2000/svg" xmlns:xlink="http://www.w3.org/1999/xlink" width="1080" zoomAndPan="magnify" viewBox="0 0 810 809.999993" height="1080" preserveAspectRatio="xMidYMid meet" version="1.0"><path fill="#ff7800" d="M 406.433594 282.3125 L 371.625 282.3125 L 366.710938 295.875 L 348.273438 295.875 L 378.273438 214.933594 L 399.71875 214.933594 L 429.628906 295.875 L 411.191406 295.875 Z M 401.773438 267.828125 L 388.941406 231.480469 L 376.171875 267.828125 Z M 401.773438 267.828125 " fill-opacity="1" fill-rule="nonzero"/><path fill="#ff7800" d="M 437.863281 213.25 L 457.429688 213.25 L 457.429688 295.875 L 437.863281 295.875 Z M 437.863281 213.25 " fill-opacity="1" fill-rule="nonzero"/><path fill="#ff7800" d="M 94.722656 306.140625 C 103.171875 306.140625 110.695312 307.917969 117.300781 311.472656 C 123.902344 315.027344 129.046875 319.988281 132.734375 326.351562 C 136.421875 332.714844 138.261719 339.9375 138.261719 348.011719 C 138.261719 356.121094 136.414062 363.402344 132.710938 369.863281 C 129.007812 376.324219 123.855469 381.371094 117.253906 385.003906 C 110.648438 388.636719 103.140625 390.453125 94.722656 390.453125 L 68.203125 390.453125 L 68.203125 306.140625 Z M 94.023438 372.519531 C 99.03125 372.519531 103.425781 371.417969 107.203125 369.214844 C 110.984375 367.011719 113.914062 364.007812 115.992188 360.199219 C 118.070312 356.386719 119.109375 352.121094 119.109375 347.402344 C 119.109375 342.648438 118.070312 338.417969 115.992188 334.703125 C 113.914062 330.988281 110.984375 328.082031 107.203125 325.992188 C 103.425781 323.902344 99.015625 322.855469 93.976562 322.855469 L 88.21875 322.855469 L 88.21875 372.519531 Z M 94.023438 372.519531 " fill-opacity="1" fill-rule="nonzero"/><path fill="#ff7800" d="M 156.125 329.269531 L 174.738281 329.269531 L 174.738281 390.453125 L 156.125 390.453125 Z M 165.367188 320.183594 C 162.433594 320.183594 159.9375 319.199219 157.875 317.226562 C 155.8125 315.257812 154.78125 312.84375 154.78125 309.992188 C 154.78125 308.160156 155.253906 306.460938 156.191406 304.890625 C 157.132812 303.320312 158.410156 302.085938 160.03125 301.191406 C 161.652344 300.296875 163.433594 299.851562 165.378906 299.851562 C 167.257812 299.851562 169.003906 300.296875 170.621094 301.191406 C 172.234375 302.085938 173.511719 303.320312 174.453125 304.890625 C 175.390625 306.460938 175.863281 308.160156 175.863281 309.992188 C 175.863281 312.84375 174.847656 315.257812 172.816406 317.226562 C 170.785156 319.199219 168.300781 320.183594 165.367188 320.183594 Z M 165.367188 320.183594 " fill-opacity="1" fill-rule="nonzero"/><path fill="#ff7800" d="M 207.179688 370.730469 C 207.296875 372.351562 207.917969 373.761719 209.039062 374.957031 C 210.164062 376.148438 211.730469 376.746094 213.746094 376.746094 C 215.59375 376.746094 216.949219 376.320312 217.800781 375.464844 C 218.652344 374.613281 219.082031 373.589844 219.082031 372.394531 C 219.082031 371.132812 218.527344 370.097656 217.414062 369.285156 C 216.308594 368.476562 214.691406 367.683594 212.566406 366.90625 L 210.695312 366.265625 C 205.449219 364.480469 201.390625 362.554688 198.519531 360.488281 C 195.648438 358.417969 193.675781 356.238281 192.605469 353.945312 C 191.535156 351.65625 191.039062 349.0625 191.117188 346.171875 C 191.117188 342.808594 192.082031 339.738281 194.015625 336.949219 C 195.949219 334.164062 198.609375 331.957031 202 330.328125 C 205.394531 328.699219 209.242188 327.882812 213.550781 327.882812 C 218.234375 327.882812 222.273438 328.765625 225.664062 330.527344 C 229.058594 332.289062 231.644531 334.695312 233.429688 337.75 C 235.210938 340.804688 236.148438 344.285156 236.242188 348.195312 L 219.3125 348.195312 C 219.3125 346.402344 218.804688 344.960938 217.792969 343.875 C 216.785156 342.785156 215.417969 342.242188 213.691406 342.242188 C 212.183594 342.242188 210.929688 342.652344 209.9375 343.476562 C 208.941406 344.300781 208.445312 345.390625 208.445312 346.75 C 208.445312 347.855469 208.769531 348.78125 209.417969 349.523438 C 210.066406 350.265625 211.039062 350.933594 212.335938 351.519531 C 213.632812 352.109375 215.375 352.734375 217.558594 353.390625 C 222.003906 354.695312 225.609375 356.242188 228.371094 358.035156 C 231.136719 359.828125 233.183594 361.960938 234.515625 364.433594 C 235.847656 366.910156 236.511719 369.8125 236.511719 373.152344 C 236.511719 376.519531 235.585938 379.636719 233.730469 382.492188 C 231.871094 385.351562 229.191406 387.621094 225.683594 389.308594 C 222.179688 390.992188 218.039062 391.835938 213.269531 391.835938 C 208.644531 391.835938 204.601562 390.898438 201.136719 389.027344 C 197.671875 387.152344 194.972656 384.609375 193.042969 381.398438 C 191.109375 378.1875 190.054688 374.632812 189.875 370.730469 Z M 207.179688 370.730469 " fill-opacity="1" fill-rule="nonzero"/><path fill="#ff7800" d="M 313.96875 367.523438 C 313.066406 372.289062 311.132812 376.507812 308.164062 380.179688 C 305.195312 383.847656 301.492188 386.710938 297.054688 388.757812 C 292.621094 390.808594 287.765625 391.835938 282.5 391.835938 C 276.25 391.835938 270.636719 390.480469 265.660156 387.773438 C 260.683594 385.066406 256.78125 381.304688 253.949219 376.496094 C 251.117188 371.683594 249.703125 366.238281 249.703125 360.160156 C 249.703125 354.003906 251.117188 348.46875 253.949219 343.5625 C 256.78125 338.648438 260.683594 334.8125 265.660156 332.042969 C 270.636719 329.273438 276.25 327.890625 282.5 327.890625 C 287.765625 327.890625 292.621094 328.933594 297.054688 331.023438 C 301.492188 333.109375 305.183594 336.019531 308.128906 339.742188 C 311.074219 343.464844 313.023438 347.742188 313.96875 352.570312 L 295.214844 352.570312 C 294.070312 350.234375 292.390625 348.4375 290.175781 347.175781 C 287.960938 345.914062 285.402344 345.28125 282.5 345.28125 C 279.6875 345.28125 277.167969 345.894531 274.9375 347.125 C 272.714844 348.355469 270.984375 350.089844 269.753906 352.332031 C 268.523438 354.574219 267.910156 357.140625 267.910156 360.035156 C 267.910156 362.890625 268.523438 365.40625 269.753906 367.578125 C 270.984375 369.75 272.714844 371.449219 274.9375 372.675781 C 277.167969 373.898438 279.6875 374.511719 282.5 374.511719 C 285.351562 374.511719 287.882812 373.90625 290.09375 372.691406 C 292.304688 371.480469 294.003906 369.757812 295.195312 367.523438 Z M 313.96875 367.523438 " fill-opacity="1" fill-rule="nonzero"/><path fill="#ff7800" d="M 328.6875 306.140625 L 347.300781 306.140625 L 347.300781 390.453125 L 328.6875 390.453125 Z M 328.6875 306.140625 " fill-opacity="1" fill-rule="nonzero"/><path fill="#ff7800" d="M 394.785156 391.835938 C 388.523438 391.835938 382.886719 390.476562 377.882812 387.757812 C 372.875 385.039062 368.964844 381.253906 366.152344 376.410156 C 363.335938 371.566406 361.929688 366.082031 361.929688 359.953125 C 361.929688 353.769531 363.332031 348.242188 366.140625 343.371094 C 368.949219 338.496094 372.859375 334.699219 377.871094 331.972656 C 382.882812 329.246094 388.523438 327.882812 394.785156 327.882812 C 401.046875 327.882812 406.695312 329.25 411.726562 331.980469 C 416.761719 334.710938 420.691406 338.515625 423.515625 343.390625 C 426.339844 348.265625 427.753906 353.785156 427.753906 359.953125 C 427.753906 366.082031 426.332031 371.570312 423.496094 376.414062 C 420.660156 381.261719 416.730469 385.042969 411.710938 387.757812 C 406.6875 390.476562 401.046875 391.835938 394.785156 391.835938 Z M 394.800781 374.851562 C 397.648438 374.851562 400.21875 374.203125 402.519531 372.910156 C 404.816406 371.617188 406.613281 369.835938 407.910156 367.558594 C 409.210938 365.285156 409.859375 362.730469 409.859375 359.886719 C 409.859375 356.964844 409.214844 354.363281 407.921875 352.085938 C 406.632812 349.804688 404.84375 348.035156 402.554688 346.765625 C 400.269531 345.5 397.679688 344.867188 394.792969 344.867188 C 391.902344 344.867188 389.320312 345.496094 387.039062 346.757812 C 384.761719 348.019531 382.996094 349.789062 381.738281 352.066406 C 380.476562 354.347656 379.847656 356.957031 379.847656 359.894531 C 379.847656 362.753906 380.476562 365.3125 381.730469 367.578125 C 382.984375 369.84375 384.75 371.621094 387.03125 372.914062 C 389.308594 374.207031 391.898438 374.851562 394.800781 374.851562 Z M 394.800781 374.851562 " fill-opacity="1" fill-rule="nonzero"/><path fill="#ff7800" d="M 455.324219 370.730469 C 455.441406 372.351562 456.0625 373.761719 457.183594 374.957031 C 458.308594 376.148438 459.875 376.746094 461.890625 376.746094 C 463.738281 376.746094 465.09375 376.320312 465.945312 375.464844 C 466.796875 374.613281 467.226562 373.589844 467.226562 372.394531 C 467.226562 371.132812 466.671875 370.097656 465.558594 369.285156 C 464.453125 368.476562 462.835938 367.683594 460.710938 366.90625 L 458.84375 366.265625 C 453.59375 364.480469 449.535156 362.554688 446.664062 360.488281 C 443.792969 358.417969 441.820312 356.238281 440.75 353.945312 C 439.679688 351.65625 439.183594 349.0625 439.261719 346.171875 C 439.261719 342.808594 440.226562 339.738281 442.160156 336.949219 C 444.09375 334.164062 446.753906 331.957031 450.144531 330.328125 C 453.539062 328.699219 457.386719 327.882812 461.695312 327.882812 C 466.378906 327.882812 470.417969 328.765625 473.808594 330.527344 C 477.203125 332.289062 479.789062 334.695312 481.574219 337.75 C 483.355469 340.804688 484.292969 344.285156 484.386719 348.195312 L 467.457031 348.195312 C 467.457031 346.402344 466.949219 344.960938 465.9375 343.875 C 464.929688 342.785156 463.5625 342.242188 461.835938 342.242188 C 460.328125 342.242188 459.074219 342.652344 458.082031 343.476562 C 457.085938 344.300781 456.589844 345.390625 456.589844 346.75 C 456.589844 347.855469 456.914062 348.78125 457.5625 349.523438 C 458.210938 350.265625 459.183594 350.933594 460.480469 351.519531 C 461.777344 352.109375 463.519531 352.734375 465.703125 353.390625 C 470.148438 354.695312 473.753906 356.242188 476.515625 358.035156 C 479.28125 359.828125 481.328125 361.960938 482.660156 364.433594 C 483.992188 366.910156 484.65625 369.8125 484.65625 373.152344 C 484.65625 376.519531 483.730469 379.636719 481.875 382.492188 C 480.015625 385.351562 477.335938 387.621094 473.828125 389.308594 C 470.324219 390.992188 466.183594 391.835938 461.414062 391.835938 C 456.789062 391.835938 452.746094 390.898438 449.28125 389.027344 C 445.816406 387.152344 443.121094 384.609375 441.1875 381.398438 C 439.253906 378.1875 438.199219 374.632812 438.019531 370.730469 Z M 455.324219 370.730469 " fill-opacity="1" fill-rule="nonzero"/><path fill="#ff7800" d="M 517.679688 329.269531 L 517.679688 363.980469 C 517.679688 366.207031 518.132812 368.121094 519.03125 369.722656 C 519.933594 371.324219 521.152344 372.546875 522.691406 373.386719 C 524.230469 374.226562 525.9375 374.644531 527.816406 374.644531 C 529.695312 374.644531 531.402344 374.226562 532.941406 373.386719 C 534.476562 372.546875 535.703125 371.324219 536.621094 369.722656 C 537.539062 368.121094 538 366.207031 538 363.980469 L 538 329.269531 L 556.613281 329.269531 L 556.613281 361.648438 C 556.613281 367.195312 555.4375 372.261719 553.085938 376.847656 C 550.734375 381.433594 547.375 385.066406 543.007812 387.746094 C 538.640625 390.425781 533.566406 391.765625 527.785156 391.765625 C 522 391.765625 516.933594 390.425781 512.582031 387.746094 C 508.230469 385.066406 504.890625 381.441406 502.5625 376.871094 C 500.234375 372.304688 499.066406 367.230469 499.066406 361.648438 L 499.066406 329.269531 Z M 517.679688 329.269531 " fill-opacity="1" fill-rule="nonzero"/><path fill="#ff7800" d="M 588.328125 329.269531 L 588.601562 341.386719 C 590.972656 336.914062 593.960938 333.742188 597.566406 331.875 C 601.171875 330.003906 605.304688 329.136719 609.964844 329.269531 L 610.03125 348.152344 C 606.925781 347.972656 603.988281 348.476562 601.210938 349.664062 C 598.4375 350.851562 596.195312 352.582031 594.484375 354.851562 C 592.773438 357.121094 591.917969 359.71875 591.917969 362.648438 L 591.917969 390.453125 L 573.308594 390.453125 L 573.308594 329.269531 Z M 588.328125 329.269531 " fill-opacity="1" fill-rule="nonzero"/><path fill="#ff7800" d="M 619.226562 359.90625 C 619.226562 353.703125 620.605469 348.167969 623.363281 343.304688 C 626.117188 338.441406 629.949219 334.65625 634.859375 331.949219 C 639.769531 329.238281 645.375 327.882812 651.671875 327.882812 C 658.402344 327.882812 664.40625 329.417969 669.679688 332.492188 C 674.953125 335.5625 678.910156 340.015625 681.550781 345.847656 C 684.191406 351.679688 685.0625 358.519531 684.167969 366.367188 L 638.195312 366.367188 C 638.554688 368.363281 639.332031 370.160156 640.523438 371.753906 C 641.597656 373.300781 643.074219 374.613281 644.953125 375.695312 C 646.828125 376.78125 649.136719 377.351562 651.878906 377.414062 C 654.027344 377.472656 656.03125 377.175781 657.882812 376.523438 C 659.742188 375.871094 661.105469 375.007812 661.972656 373.929688 L 681.941406 373.929688 C 679.421875 379.460938 675.527344 383.828125 670.25 387.03125 C 664.972656 390.234375 658.78125 391.835938 651.671875 391.835938 C 645.375 391.835938 639.757812 390.480469 634.816406 387.773438 C 629.875 385.0625 626.042969 381.292969 623.316406 376.457031 C 620.589844 371.625 619.226562 366.109375 619.226562 359.90625 Z M 665.417969 353.976562 C 665 351.742188 664.195312 349.875 663.011719 348.375 C 661.671875 346.597656 660.042969 345.269531 658.121094 344.382812 C 656.203125 343.492188 654.082031 343.050781 651.761719 343.050781 C 649.28125 343.050781 647.074219 343.542969 645.144531 344.527344 C 643.214844 345.511719 641.613281 346.863281 640.332031 348.578125 C 639.710938 349.320312 639.230469 350.128906 638.886719 351.003906 C 638.546875 351.878906 638.285156 352.871094 638.105469 353.976562 Z M 665.417969 353.976562 " fill-opacity="1" fill-rule="nonzero"/><path fill="#ff7800" d="M 712.621094 370.730469 C 712.738281 372.351562 713.359375 373.761719 714.480469 374.957031 C 715.605469 376.148438 717.171875 376.746094 719.1875 376.746094 C 721.039062 376.746094 722.390625 376.320312 723.242188 375.464844 C 724.097656 374.613281 724.523438 373.589844 724.523438 372.394531 C 724.523438 371.132812 723.96875 370.097656 722.859375 369.285156 C 721.75 368.476562 720.132812 367.683594 718.007812 366.90625 L 716.140625 366.265625 C 710.890625 364.480469 706.832031 362.554688 703.960938 360.488281 C 701.089844 358.417969 699.121094 356.238281 698.046875 353.945312 C 696.976562 351.65625 696.480469 349.0625 696.558594 346.171875 C 696.558594 342.808594 697.523438 339.738281 699.457031 336.949219 C 701.390625 334.164062 704.050781 331.957031 707.441406 330.328125 C 710.835938 328.699219 714.683594 327.882812 718.992188 327.882812 C 723.679688 327.882812 727.714844 328.765625 731.109375 330.527344 C 734.5 332.289062 737.085938 334.695312 738.871094 337.75 C 740.652344 340.804688 741.589844 344.285156 741.683594 348.195312 L 724.753906 348.195312 C 724.753906 346.402344 724.246094 344.960938 723.234375 343.875 C 722.226562 342.785156 720.859375 342.242188 719.132812 342.242188 C 717.625 342.242188 716.371094 342.652344 715.378906 343.476562 C 714.382812 344.300781 713.886719 345.390625 713.886719 346.75 C 713.886719 347.855469 714.210938 348.78125 714.859375 349.523438 C 715.507812 350.265625 716.480469 350.933594 717.777344 351.519531 C 719.074219 352.109375 720.816406 352.734375 723 353.390625 C 727.445312 354.695312 731.050781 356.242188 733.816406 358.035156 C 736.578125 359.828125 738.625 361.960938 739.957031 364.433594 C 741.289062 366.910156 741.953125 369.8125 741.953125 373.152344 C 741.953125 376.519531 741.027344 379.636719 739.171875 382.492188 C 737.316406 385.351562 734.632812 387.621094 731.125 389.308594 C 727.621094 390.992188 723.480469 391.835938 718.714844 391.835938 C 714.085938 391.835938 710.042969 390.898438 706.578125 389.027344 C 703.113281 387.152344 700.417969 384.609375 698.484375 381.398438 C 696.550781 378.1875 695.496094 374.632812 695.316406 370.730469 Z M 712.621094 370.730469 " fill-opacity="1" fill-rule="nonzero"/><path fill="#ff7800" d="M 194.515625 400.71875 L 221.09375 400.71875 C 226.613281 400.71875 231.851562 401.808594 236.8125 403.988281 C 241.773438 406.167969 245.78125 409.398438 248.835938 413.683594 C 251.890625 417.96875 253.417969 423.09375 253.417969 429.058594 C 253.417969 435.410156 251.890625 440.730469 248.835938 445.011719 C 245.78125 449.296875 241.804688 452.464844 236.90625 454.511719 C 232.007812 456.558594 226.734375 457.585938 221.09375 457.585938 L 214.480469 457.585938 L 214.480469 485.03125 L 194.515625 485.03125 Z M 221.5625 439.785156 C 225.378906 439.785156 228.316406 438.773438 230.371094 436.746094 C 232.425781 434.71875 233.453125 432.179688 233.453125 429.128906 C 233.453125 427.226562 233.007812 425.476562 232.121094 423.878906 C 231.234375 422.285156 229.886719 421.003906 228.078125 420.035156 C 226.273438 419.070312 224.085938 418.585938 221.515625 418.585938 L 214.480469 418.585938 L 214.480469 439.785156 Z M 221.5625 439.785156 " fill-opacity="1" fill-rule="nonzero"/><path fill="#ff7800" d="M 281.199219 423.851562 L 281.46875 435.964844 C 283.839844 431.492188 286.832031 428.320312 290.4375 426.453125 C 294.042969 424.582031 298.175781 423.714844 302.832031 423.851562 L 302.898438 442.734375 C 299.796875 442.550781 296.859375 443.054688 294.082031 444.246094 C 291.304688 445.433594 289.0625 447.160156 287.355469 449.433594 C 285.644531 451.699219 284.789062 454.296875 284.789062 457.226562 L 284.789062 485.03125 L 266.179688 485.03125 L 266.179688 423.851562 Z M 281.199219 423.851562 " fill-opacity="1" fill-rule="nonzero"/><path fill="#ff7800" d="M 344.953125 486.414062 C 338.6875 486.414062 333.054688 485.054688 328.050781 482.335938 C 323.042969 479.617188 319.132812 475.835938 316.320312 470.992188 C 313.503906 466.144531 312.097656 460.660156 312.097656 454.535156 C 312.097656 448.347656 313.5 442.820312 316.308594 437.949219 C 319.113281 433.078125 323.027344 429.277344 328.039062 426.550781 C 333.050781 423.824219 338.6875 422.460938 344.953125 422.460938 C 351.214844 422.460938 356.863281 423.828125 361.894531 426.558594 C 366.929688 429.289062 370.855469 433.09375 373.683594 437.96875 C 376.507812 442.84375 377.921875 448.367188 377.921875 454.535156 C 377.921875 460.660156 376.5 466.148438 373.664062 470.996094 C 370.828125 475.839844 366.898438 479.621094 361.878906 482.339844 C 356.855469 485.054688 351.214844 486.414062 344.953125 486.414062 Z M 344.96875 469.429688 C 347.816406 469.429688 350.386719 468.785156 352.6875 467.492188 C 354.984375 466.195312 356.78125 464.414062 358.078125 462.140625 C 359.378906 459.867188 360.027344 457.308594 360.027344 454.464844 C 360.027344 451.542969 359.382812 448.941406 358.089844 446.664062 C 356.800781 444.386719 355.011719 442.613281 352.722656 441.34375 C 350.4375 440.078125 347.847656 439.445312 344.960938 439.445312 C 342.070312 439.445312 339.488281 440.074219 337.207031 441.339844 C 334.929688 442.597656 333.164062 444.367188 331.902344 446.648438 C 330.644531 448.925781 330.015625 451.535156 330.015625 454.472656 C 330.015625 457.332031 330.644531 459.894531 331.898438 462.15625 C 333.152344 464.421875 334.917969 466.199219 337.195312 467.492188 C 339.476562 468.785156 342.066406 469.429688 344.96875 469.429688 Z M 344.96875 469.429688 " fill-opacity="1" fill-rule="nonzero"/><path fill="#ff7800" d="M 385.847656 500.027344 C 388.371094 499.617188 390.425781 498.550781 392 496.828125 C 393.582031 495.105469 394.371094 492.820312 394.371094 489.972656 L 394.371094 423.851562 L 412.984375 423.851562 L 412.984375 491.875 C 412.984375 495.242188 412.171875 498.820312 410.550781 502.617188 C 408.929688 506.414062 406.097656 509.753906 402.050781 512.632812 C 398.003906 515.511719 392.605469 517.0625 385.847656 517.285156 Z M 403.558594 414.761719 C 400.617188 414.761719 398.117188 413.777344 396.054688 411.804688 C 393.992188 409.835938 392.960938 407.425781 392.960938 404.574219 C 392.960938 402.738281 393.429688 401.039062 394.371094 399.46875 C 395.308594 397.898438 396.585938 396.667969 398.203125 395.773438 C 399.816406 394.878906 401.601562 394.429688 403.558594 394.429688 C 405.4375 394.429688 407.183594 394.878906 408.800781 395.773438 C 410.414062 396.667969 411.691406 397.898438 412.628906 399.46875 C 413.570312 401.039062 414.039062 402.738281 414.039062 404.574219 C 414.039062 407.425781 413.027344 409.835938 411.003906 411.804688 C 408.980469 413.777344 406.5 414.761719 403.558594 414.761719 Z M 403.558594 414.761719 " fill-opacity="1" fill-rule="nonzero"/><path fill="#ff7800" d="M 427.015625 454.484375 C 427.015625 448.28125 428.394531 442.746094 431.152344 437.882812 C 433.90625 433.019531 437.742188 429.234375 442.648438 426.527344 C 447.5625 423.816406 453.164062 422.460938 459.460938 422.460938 C 466.195312 422.460938 472.195312 424 477.46875 427.070312 C 482.742188 430.140625 486.699219 434.59375 489.339844 440.425781 C 491.980469 446.257812 492.851562 453.097656 491.957031 460.945312 L 445.984375 460.945312 C 446.34375 462.941406 447.121094 464.738281 448.3125 466.335938 C 449.390625 467.878906 450.863281 469.191406 452.742188 470.277344 C 454.617188 471.359375 456.925781 471.929688 459.667969 471.992188 C 461.816406 472.050781 463.820312 471.753906 465.675781 471.101562 C 467.53125 470.449219 468.894531 469.585938 469.761719 468.511719 L 489.730469 468.511719 C 487.210938 474.039062 483.316406 478.40625 478.039062 481.609375 C 472.761719 484.8125 466.570312 486.414062 459.460938 486.414062 C 453.164062 486.414062 447.546875 485.058594 442.605469 482.351562 C 437.664062 479.640625 433.832031 475.871094 431.105469 471.039062 C 428.378906 466.203125 427.015625 460.6875 427.015625 454.484375 Z M 473.207031 448.558594 C 472.789062 446.320312 471.988281 444.453125 470.800781 442.953125 C 469.460938 441.179688 467.832031 439.847656 465.910156 438.960938 C 463.992188 438.074219 461.871094 437.628906 459.550781 437.628906 C 457.070312 437.628906 454.863281 438.121094 452.933594 439.105469 C 451.003906 440.089844 449.402344 441.441406 448.125 443.15625 C 447.5 443.898438 447.019531 444.707031 446.675781 445.582031 C 446.335938 446.457031 446.074219 447.449219 445.894531 448.558594 Z M 473.207031 448.558594 " fill-opacity="1" fill-rule="nonzero"/><path fill="#ff7800" d="M 568.21875 462.105469 C 567.3125 466.871094 565.378906 471.085938 562.410156 474.757812 C 559.441406 478.429688 555.738281 481.289062 551.304688 483.339844 C 546.867188 485.390625 542.011719 486.414062 536.746094 486.414062 C 530.496094 486.414062 524.882812 485.058594 519.90625 482.351562 C 514.929688 479.644531 511.027344 475.886719 508.195312 471.074219 C 505.363281 466.265625 503.949219 460.820312 503.949219 454.738281 C 503.949219 448.582031 505.363281 443.050781 508.195312 438.140625 C 511.027344 433.230469 514.929688 429.390625 519.90625 426.621094 C 524.882812 423.851562 530.496094 422.46875 536.746094 422.46875 C 542.011719 422.46875 546.867188 423.511719 551.304688 425.601562 C 555.738281 427.691406 559.429688 430.597656 562.375 434.320312 C 565.320312 438.046875 567.269531 442.320312 568.21875 447.152344 L 549.460938 447.152344 C 548.320312 444.816406 546.640625 443.015625 544.421875 441.753906 C 542.207031 440.492188 539.648438 439.859375 536.746094 439.859375 C 533.933594 439.859375 531.414062 440.476562 529.1875 441.707031 C 526.960938 442.933594 525.230469 444.667969 524 446.910156 C 522.769531 449.152344 522.15625 451.71875 522.15625 454.613281 C 522.15625 457.46875 522.769531 459.984375 524 462.15625 C 525.230469 464.332031 526.960938 466.03125 529.1875 467.253906 C 531.414062 468.476562 533.933594 469.089844 536.746094 469.089844 C 539.597656 469.089844 542.132812 468.484375 544.339844 467.273438 C 546.550781 466.0625 548.25 464.335938 549.441406 462.105469 Z M 568.21875 462.105469 " fill-opacity="1" fill-rule="nonzero"/><path fill="#ff7800" d="M 578.328125 423.851562 L 614.15625 423.851562 L 614.15625 438.261719 L 578.328125 438.261719 Z M 614.296875 485.792969 L 612.484375 485.792969 C 606.894531 485.792969 602.199219 484.753906 598.390625 482.683594 C 594.585938 480.609375 591.722656 477.789062 589.796875 474.222656 C 587.875 470.65625 586.910156 466.027344 586.910156 460.335938 L 586.910156 400.71875 L 605.523438 400.71875 L 605.523438 457.761719 C 605.523438 460.101562 605.785156 461.96875 606.300781 463.367188 C 606.816406 464.761719 607.613281 465.871094 608.683594 466.691406 C 609.757812 467.511719 611.136719 467.925781 612.820312 467.925781 L 614.296875 467.925781 Z M 580.175781 423.851562 C 581.261719 423.851562 582.226562 423.691406 583.074219 423.375 C 583.921875 423.054688 584.558594 422.679688 584.988281 422.25 C 585.734375 421.484375 586.242188 420.53125 586.511719 419.386719 C 586.777344 418.238281 586.910156 416.683594 586.910156 414.714844 L 586.910156 423.851562 Z M 580.175781 423.851562 " fill-opacity="1" fill-rule="nonzero"/></svg>