<svg xmlns="http://www.w3.org/2000/svg" xmlns:xlink="http://www.w3.org/1999/xlink" xmlns:inkscape="http://www.inkscape.org/namespaces/inkscape" version="1.1" width="594.95999" height="841.92" viewBox="0 0 594.95999 841.92">
<defs>
<clipPath id="clip_1">
<path transform="matrix(.24,0,0,.24,0,0)" d="M58.333333 233.33333H2424.9998V3447.2479H58.333333Z" clip-rule="evenodd"/>
</clipPath>
<g id="font_2_2">
<path transform="matrix(.001,0,0,-.001,0,0)" d="M533.59378-122.640628H218.82813L174.35938 0H7.640625L278.9375-732H472.89064L743.3594 0H576.6406L533.59378-122.640628ZM491.46876-253.64063 375.40626-582.3594 259.9375-253.64063H491.46876Z"/>
</g>
<g id="font_3_45">
<path transform="matrix(.001,0,0,-.001,0,0)" d="M92.359378-732H265.70314V0H92.359378Z"/>
</g>
<g id="font_4_20">
<path transform="matrix(.001,0,0,-.001,0,0)" d="M308.46876-732C381.8021-732 447.1354-716.5677 504.46876-685.7031 561.80209-654.83859 606.46878-611.77609 638.46878-556.5156 670.46878-501.26564 686.46878-438.58335 686.46878-368.46876 686.46878-298.0729 670.40109-234.83335 638.2656-178.75 606.1302-122.67708 561.3958-78.864589 504.0625-47.3125 446.72917-15.770832 381.53126 0 308.46876 0H78.234378V-732H308.46876ZM302.40626-155.70313C345.8646-155.70313 384.00523-165.26042 416.82814-184.375 449.65104-203.5 475.07814-229.59896 493.10939-262.67189 511.15104-295.75523 520.1719-332.78648 520.1719-373.76564 520.1719-415.01564 511.15104-451.76564 493.10939-484.01564 475.07814-516.27609 449.65104-541.4844 416.82814-559.6406 384.00523-577.7969 345.72917-586.875 302-586.875H252V-155.70313H302.40626Z"/>
</g>
<g id="font_4_174">
<path transform="matrix(.001,0,0,-.001,0,0)" d="M99.875-531.1719H261.46876V0H99.875V-531.1719ZM180.14063-610.0625C154.67188-610.0625 132.98438-618.6198 115.078128-635.7344 97.18229-652.84896 88.234378-673.78128 88.234378-698.53128 88.234378-714.44796 92.3125-729.21878 100.46875-742.84378 108.625-756.4792 119.734378-767.17709 133.79688-774.9375 147.8698-782.7083 163.34896-786.59378 180.23438-786.59378 196.54688-786.59378 211.71355-782.7083 225.73438-774.9375 239.7552-767.17709 250.84375-756.4792 259-742.84378 267.15626-729.21878 271.23439-714.44796 271.23439-698.53128 271.23439-673.78128 262.41667-652.84896 244.78125-635.7344 227.15625-618.6198 205.60938-610.0625 180.14063-610.0625Z"/>
</g>
<g id="font_4_221">
<path transform="matrix(.001,0,0,-.001,0,0)" d="M198.78125-171.21875C199.8125-157.14583 205.19792-144.92188 214.9375-134.54688 224.6875-124.18229 238.30208-119 255.78125-119 271.85417-119 283.59376-122.703128 291-130.10938 298.40626-137.51563 302.10939-146.40625 302.10939-156.78125 302.10939-167.73958 297.29167-176.73438 287.65626-183.76563 278.03126-190.8073 264-197.69792 245.5625-204.4375L229.32813-210C183.77603-225.47917 148.53646-242.19792 123.609378-260.15626 98.68229-278.125 81.56771-297.0521 72.265628-316.9375 62.973958-336.83335 58.661458-359.33335 59.328126-384.4375 59.328126-413.625 67.71875-440.3125 84.5-464.5 101.28125-488.6875 124.390628-507.85417 153.82813-522 183.27605-536.1458 216.70313-543.21878 254.10938-543.21878 294.77604-543.21878 329.83335-535.5677 359.28126-520.2656 388.72917-504.97398 411.19273-484.06773 426.67189-457.54689 442.15104-431.03648 450.29689-400.81773 451.10939-366.89064H304.10939C304.10939-382.44273 299.71876-394.94273 290.9375-404.39064 282.16667-413.83854 270.29689-418.5625 255.32813-418.5625 242.22396-418.5625 231.35417-414.98439 222.71875-407.82814 214.09375-400.68229 209.78125-391.21876 209.78125-379.4375 209.78125-369.8125 212.59375-361.77604 218.21875-355.32814 223.85417-348.89064 232.30208-343.1146 243.5625-338 254.82292-332.8854 269.93229-327.47917 288.89064-321.78126 327.48439-310.4479 358.78126-297 382.78126-281.4375 406.78126-265.8854 424.55729-247.3698 436.10939-225.89063 447.67189-204.41146 453.45314-179.1875 453.45314-150.21875 453.45314-120.95833 445.39585-93.921878 429.28126-69.109378 413.16667-44.296876 389.8854-24.572918 359.4375-9.9375 329 4.6875 293.07814 12 251.67188 12 211.51563 12 176.40105 3.869793 146.32813-12.390625 116.2552-28.651043 92.828128-50.723958 76.046878-78.609378 59.27604-106.4948 50.114583-137.36458 48.5625-171.21875H198.78125Z"/>
</g>
<g id="font_4_143">
<path transform="matrix(.001,0,0,-.001,0,0)" d="M613.8281-199.0625C605.9844-157.6875 589.17709-121.06771 563.40628-89.203128 537.6458-57.33854 505.50523-32.50521 466.98439-14.703125 428.46354 3.098959 386.33335 12 340.59376 12 286.35417 12 237.625 .24479294 194.40625-23.265625 151.1979-46.776044 117.3073-79.41145 92.734378-121.171878 68.16145-162.94272 55.875-210.21875 55.875-263 55.875-316.4479 68.16145-364.48439 92.734378-407.10939 117.3073-449.74479 151.1979-483.07814 194.40625-507.10939 237.625-531.15109 286.35417-543.1719 340.59376-543.1719 386.33335-543.1719 428.46354-534.1042 466.98439-515.96878 505.50523-497.83335 537.5469-472.59898 563.1094-440.26564 588.6823-407.93229 605.58859-370.8021 613.8281-328.875H451C441.0729-349.15626 426.4896-364.77604 407.25-375.73439 388.02085-386.69273 365.8021-392.17189 340.59376-392.17189 316.1771-392.17189 294.3021-386.83335 274.96876-376.15626 255.64583-365.4896 240.64063-350.4271 229.95313-330.96876 219.27605-311.5104 213.9375-289.21354 213.9375-264.07814 213.9375-239.28646 219.27605-217.45833 229.95313-198.59375 240.64063-179.72917 255.64583-164.97917 274.96876-154.34375 294.3021-143.71875 316.1771-138.40625 340.59376-138.40625 365.375-138.40625 387.35417-143.66667 406.53126-154.1875 425.71876-164.70833 440.48439-179.66667 450.82814-199.0625H613.8281Z"/>
</g>
<g id="font_4_191">
<path transform="matrix(.001,0,0,-.001,0,0)" d="M88.234378-732H249.82813V0H88.234378Z"/>
</g>
<g id="font_4_204">
<path transform="matrix(.001,0,0,-.001,0,0)" d="M326.5625 12C272.1875 12 223.27085 .19791794 179.8125-23.40625 136.35416-47.020837 102.40625-79.854167 77.96875-121.90625 53.541666-163.96875 41.328126-211.59375 41.328126-264.78126 41.328126-318.47917 53.510416-366.47398 77.875-408.76564 102.25-451.06773 136.1979-484.0521 179.71875-507.71876 223.2396-531.38546 272.1875-543.21878 326.5625-543.21878 380.9271-543.21878 429.95835-531.36459 473.65626-507.65626 517.3542-483.9479 551.46359-450.9271 575.9844-408.59376 600.5156-366.27085 612.78128-318.33335 612.78128-264.78126 612.78128-211.58333 600.46359-163.94792 575.8281-121.875 551.2031-79.8125 517.09378-46.984376 473.5-23.390625 429.90626 .203125 380.9271 12 326.5625 12ZM326.71876-135.45313C351.4271-135.45313 373.75523-141.0677 393.70314-152.29688 413.65104-163.52605 429.2604-179.01042 440.53126-198.75 451.8021-218.48958 457.4375-240.69792 457.4375-265.375 457.4375-290.75 451.83335-313.32814 440.625-333.10939 429.41667-352.89064 413.8854-368.28126 394.03126-379.28126 374.1771-390.28126 351.70835-395.78126 326.625-395.78126 301.54167-395.78126 279.10939-390.3021 259.32814-379.34376 239.5573-368.39585 224.20833-353.03126 213.28125-333.25 202.35417-313.46876 196.89063-290.81773 196.89063-265.29689 196.89063-240.48438 202.33333-218.25 213.21875-198.59375 224.11458-178.9375 239.45313-163.5 259.23439-152.28125 279.01564-141.0625 301.5104-135.45313 326.71876-135.45313Z"/>
</g>
<g id="font_4_232">
<path transform="matrix(.001,0,0,-.001,0,0)" d="M228.0625-531.1719V-229.82813C228.0625-210.4948 231.96875-193.875 239.78125-179.96875 247.60417-166.0625 258.19273-155.46355 271.54689-148.17188 284.91148-140.8802 299.75-137.23438 316.0625-137.23438 332.375-137.23438 347.1979-140.8802 360.53126-148.17188 373.875-155.46355 384.53126-166.0625 392.5-179.96875 400.47917-193.875 404.46876-210.4948 404.46876-229.82813V-531.1719H566.0625V-250.0625C566.0625-201.90625 555.8542-157.92188 535.4375-118.109378 515.03128-78.30729 485.8646-46.770837 447.9375-23.5 410.02085-.22916603 365.96354 11.40625 315.76564 11.40625 265.56773 11.40625 221.57813-.22916603 183.79688-23.5 146.01563-46.770837 117.015628-78.23958 96.796878-117.90625 76.578128-157.57292 66.46875-201.625 66.46875-250.0625V-531.1719H228.0625Z"/>
</g>
<g id="font_4_217">
<path transform="matrix(.001,0,0,-.001,0,0)" d="M214.53125-531.1719 216.89063-426C237.47396-464.8229 263.42189-492.34898 294.73439-508.57814 326.04689-524.8177 361.92189-532.34896 402.35939-531.1719L402.9375-367.23439C376-368.80729 350.47917-364.43229 326.375-354.10939 302.28126-343.79689 282.8125-328.78648 267.96876-309.07814 253.125-289.38023 245.70313-266.8229 245.70313-241.40625V0H84.125V-531.1719H214.53125Z"/>
</g>
<g id="font_4_153">
<path transform="matrix(.001,0,0,-.001,0,0)" d="M41.328126-265.21876C41.328126-319.0729 53.291666-367.10939 77.21875-409.32814 101.145839-451.55729 134.42188-484.4271 177.04688-507.9375 219.6823-531.4583 268.33335-543.21878 323-543.21878 381.4479-543.21878 433.55729-529.88546 479.32814-503.21876 525.1094-476.5521 559.46359-437.90104 582.3906-387.26564 605.3177-336.64064 612.8906-277.25523 605.1094-209.10938H206C209.11458-191.77605 215.85417-176.1823 226.21875-162.32813 235.55208-148.92188 248.36458-137.51563 264.65626-128.10938 280.95835-118.703128 301-113.739589 324.78126-113.21875 343.4479-112.708339 360.83335-115.28125 376.9375-120.9375 393.0521-126.604167 404.8854-134.10417 412.4375-143.4375H585.78128C563.92709-95.4375 530.09378-57.53125 484.28126-29.71875 438.46876-1.90625 384.70835 12 323 12 268.33335 12 219.5521 .23958397 176.65625-23.28125 133.77083-46.802087 100.4948-79.541667 76.828128-121.5 53.161458-163.45835 41.328126-211.36458 41.328126-265.21876ZM442.32814-316.67189C438.70314-336.07814 431.7396-352.29689 421.4375-365.32814 409.8125-380.73439 395.66667-392.28648 379-399.98439 362.33335-407.69273 343.9271-411.54689 323.78126-411.54689 302.22917-411.54689 283.07814-407.27085 266.32814-398.71876 249.58855-390.16667 235.66667-378.4479 224.5625-363.5625 219.15625-357.1146 214.96875-350.09376 212-342.5 209.04167-334.90626 206.78125-326.29689 205.21875-316.67189H442.32814Z"/>
</g>
<g id="font_4_83">
<path transform="matrix(.001,0,0,-.001,0,0)" d="M80-732H310.76564C358.68229-732 404.17189-722.53646 447.23439-703.6094 490.29689-684.6927 525.08859-656.63546 551.6094-619.4375 578.1406-582.23959 591.40628-537.73959 591.40628-485.9375 591.40628-430.8021 578.1406-384.6354 551.6094-347.4375 525.08859-310.2396 490.5625-282.75 448.03126-264.96876 405.5-247.1875 359.74479-238.29688 310.76564-238.29688H253.35938V0H80V-732ZM314.82814-392.82814C347.96354-392.82814 373.45314-401.61979 391.29689-419.20314 409.14064-436.79689 418.0625-458.84898 418.0625-485.35939 418.0625-501.85939 414.20835-517.0417 406.5-530.90628 398.79167-544.7708 387.09376-555.8958 371.40626-564.28128 355.72917-572.67709 336.72917-576.875 314.40626-576.875H253.35938V-392.82814H314.82814Z"/>
</g>
<g id="font_4_185">
<path transform="matrix(.001,0,0,-.001,0,0)" d="M28.234375 130.17188C50.16146 126.609378 67.97396 117.354167 81.671878 102.40625 95.38021 87.46875 102.234378 67.625 102.234378 42.875V-531.1719H263.82814V59.40625C263.82814 88.625 256.78648 119.71354 242.70313 152.67188 228.6302 185.64063 204.03125 214.625 168.90625 239.625 133.79166 264.625 86.90105 278.08335 28.234375 280V130.17188ZM182-610.0625C156.46875-610.0625 134.75-618.6198 116.84375-635.7344 98.947917-652.84896 90-673.78128 90-698.53128 90-714.44796 94.078128-729.21878 102.234378-742.84378 110.390628-756.4792 121.479167-767.17709 135.5-774.9375 149.52083-782.7083 165.02083-786.59378 182-786.59378 198.3125-786.59378 213.47917-782.7083 227.5-774.9375 241.52083-767.17709 252.60938-756.4792 260.76564-742.84378 268.92189-729.21878 273-714.44796 273-698.53128 273-673.78128 264.21354-652.84896 246.64063-635.7344 229.07813-618.6198 207.53125-610.0625 182-610.0625Z"/>
</g>
<g id="font_4_228">
<path transform="matrix(.001,0,0,-.001,0,0)" d="M48.234376-531.1719H359.29689V-406.0625H48.234376V-531.1719ZM360.53126 6.59375H344.76564C296.25523 6.59375 255.47917-2.40625 222.4375-20.40625 189.39583-38.40625 164.52083-62.885416 147.8125-93.84375 131.11458-124.8125 122.765628-165 122.765628-214.40625V-732H284.35939V-236.76563C284.35939-216.45313 286.60417-200.23438 291.09376-188.10938 295.58335-175.9948 302.48439-166.3698 311.79689-159.23438 321.10939-152.09896 333.07814-148.53125 347.70314-148.53125H360.53126V6.59375ZM64.296878-531.1719C73.703128-531.1719 82.083339-532.55209 89.4375-535.3125 96.791667-538.0833 102.333339-541.3333 106.0625-545.0625 112.552089-551.69796 116.958339-559.98959 119.28125-569.9375 121.604167-579.8958 122.765628-593.40628 122.765628-610.46878V-531.1719H64.296878Z"/>
</g>
</defs>
<g clip-path="url(#clip_1)">
<path transform="matrix(.7503302,0,0,.7503302,13.999999,55.999998)" d="M0 0H757V1028H0Z" fill="#ffffff"/>
<use data-text="A" xlink:href="#font_2_2" transform="matrix(65.26673,0,0,-65.26673,97.29603,165.32898)" fill="#ff7800"/>
<use data-text="I" xlink:href="#font_3_45" transform="matrix(66.62332,0,0,-66.62332,144.51995,165.32898)" fill="#ff7800"/>
<use data-text="D" xlink:href="#font_4_20" transform="matrix(67.98592,0,0,-67.98592,93.38493,221.15354)" fill="#ff7800"/>
<use data-text="i" xlink:href="#font_4_174" transform="matrix(67.98592,0,0,-67.98592,143.80713,221.15354)" fill="#ff7800"/>
<use data-text="s" xlink:href="#font_4_221" transform="matrix(67.98592,0,0,-67.98592,167.21744,221.15354)" fill="#ff7800"/>
<use data-text="c" xlink:href="#font_4_143" transform="matrix(67.98592,0,0,-67.98592,202.03275,221.15354)" fill="#ff7800"/>
<use data-text="l" xlink:href="#font_4_191" transform="matrix(67.98592,0,0,-67.98592,246.4523,221.15354)" fill="#ff7800"/>
<use data-text="o" xlink:href="#font_4_204" transform="matrix(67.98592,0,0,-67.98592,269.26234,221.15354)" fill="#ff7800"/>
<use data-text="s" xlink:href="#font_4_221" transform="matrix(67.98592,0,0,-67.98592,313.6819,221.15354)" fill="#ff7800"/>
<use data-text="u" xlink:href="#font_4_232" transform="matrix(67.98592,0,0,-67.98592,348.4972,221.15354)" fill="#ff7800"/>
<use data-text="r" xlink:href="#font_4_217" transform="matrix(67.98592,0,0,-67.98592,391.11598,221.15354)" fill="#ff7800"/>
<use data-text="e" xlink:href="#font_4_153" transform="matrix(67.98592,0,0,-67.98592,421.1292,221.15354)" fill="#ff7800"/>
<use data-text="s" xlink:href="#font_4_221" transform="matrix(67.98592,0,0,-67.98592,465.5487,221.15354)" fill="#ff7800"/>
<use data-text="P" xlink:href="#font_4_83" transform="matrix(67.98592,0,0,-67.98592,93.38493,276.97813)" fill="#ff7800"/>
<use data-text="r" xlink:href="#font_4_217" transform="matrix(67.98592,0,0,-67.98592,135.40343,276.97813)" fill="#ff7800"/>
<use data-text="o" xlink:href="#font_4_204" transform="matrix(67.98592,0,0,-67.98592,165.41663,276.97813)" fill="#ff7800"/>
<use data-text="j" xlink:href="#font_4_185" transform="matrix(67.98592,0,0,-67.98592,209.83618,276.97813)" fill="#ff7800"/>
<use data-text="e" xlink:href="#font_4_153" transform="matrix(67.98592,0,0,-67.98592,233.24649,276.97813)" fill="#ff7800"/>
<use data-text="c" xlink:href="#font_4_143" transform="matrix(67.98592,0,0,-67.98592,277.66606,276.97813)" fill="#ff7800"/>
<use data-text="t" xlink:href="#font_4_228" transform="matrix(67.98592,0,0,-67.98592,322.08558,276.97813)" fill="#ff7800"/>
</g>
</svg>
